<mxfile host="app.diagrams.net" modified="2024-04-25T03:32:52.881Z" agent="Mozilla/5.0 (Windows NT 10.0; Win64; x64) AppleWebKit/537.36 (KHTML, like Gecko) Chrome/124.0.0.0 Safari/537.36" etag="bQ5tnNuOD7dPneLTvKMs" version="24.3.0" type="github">
  <diagram name="Page-1" id="74e2e168-ea6b-b213-b513-2b3c1d86103e">
    <mxGraphModel dx="1434" dy="746" grid="1" gridSize="10" guides="1" tooltips="1" connect="1" arrows="1" fold="1" page="1" pageScale="1" pageWidth="1100" pageHeight="850" background="none" math="0" shadow="0">
      <root>
        <mxCell id="0" />
        <mxCell id="1" parent="0" />
        <mxCell id="LGfDHVzCnz_Ye3fZg3QT-5" value="" style="edgeStyle=orthogonalEdgeStyle;rounded=0;orthogonalLoop=1;jettySize=auto;html=1;" edge="1" parent="1" source="LGfDHVzCnz_Ye3fZg3QT-1" target="LGfDHVzCnz_Ye3fZg3QT-4">
          <mxGeometry relative="1" as="geometry" />
        </mxCell>
        <mxCell id="LGfDHVzCnz_Ye3fZg3QT-7" value="" style="edgeStyle=orthogonalEdgeStyle;rounded=0;orthogonalLoop=1;jettySize=auto;html=1;" edge="1" parent="1" source="LGfDHVzCnz_Ye3fZg3QT-1" target="LGfDHVzCnz_Ye3fZg3QT-6">
          <mxGeometry relative="1" as="geometry" />
        </mxCell>
        <mxCell id="LGfDHVzCnz_Ye3fZg3QT-1" value="巡检规则" style="rounded=0;whiteSpace=wrap;html=1;" vertex="1" parent="1">
          <mxGeometry x="490" y="120" width="120" height="60" as="geometry" />
        </mxCell>
        <mxCell id="LGfDHVzCnz_Ye3fZg3QT-10" value="" style="edgeStyle=orthogonalEdgeStyle;rounded=0;orthogonalLoop=1;jettySize=auto;html=1;" edge="1" parent="1" source="LGfDHVzCnz_Ye3fZg3QT-4" target="LGfDHVzCnz_Ye3fZg3QT-9">
          <mxGeometry relative="1" as="geometry" />
        </mxCell>
        <mxCell id="LGfDHVzCnz_Ye3fZg3QT-4" value="仓库 - 扫描类型" style="rounded=0;whiteSpace=wrap;html=1;" vertex="1" parent="1">
          <mxGeometry x="380" y="300" width="120" height="70" as="geometry" />
        </mxCell>
        <mxCell id="LGfDHVzCnz_Ye3fZg3QT-6" value="仓库- 创建品质事件类型" style="whiteSpace=wrap;html=1;rounded=0;" vertex="1" parent="1">
          <mxGeometry x="580" y="300" width="140" height="70" as="geometry" />
        </mxCell>
        <mxCell id="LGfDHVzCnz_Ye3fZg3QT-12" value="" style="edgeStyle=orthogonalEdgeStyle;rounded=0;orthogonalLoop=1;jettySize=auto;html=1;" edge="1" parent="1" source="LGfDHVzCnz_Ye3fZg3QT-9" target="LGfDHVzCnz_Ye3fZg3QT-11">
          <mxGeometry relative="1" as="geometry" />
        </mxCell>
        <mxCell id="LGfDHVzCnz_Ye3fZg3QT-9" value="扫描次数" style="whiteSpace=wrap;html=1;rounded=0;" vertex="1" parent="1">
          <mxGeometry x="380" y="460" width="120" height="60" as="geometry" />
        </mxCell>
        <mxCell id="LGfDHVzCnz_Ye3fZg3QT-11" value="扫描间隔" style="whiteSpace=wrap;html=1;rounded=0;" vertex="1" parent="1">
          <mxGeometry x="380" y="600" width="120" height="60" as="geometry" />
        </mxCell>
      </root>
    </mxGraphModel>
  </diagram>
</mxfile>
